<svg width="328" height="328" viewBox="0 0 328 328" fill="none" xmlns="http://www.w3.org/2000/svg">
<path d="M196.09 229.906L279.18 312.996C288.52 322.336 303.656 322.336 312.992 312.996C322.332 303.66 322.332 288.523 312.992 279.188L229.902 196.094L196.09 229.906Z" fill="#333333" stroke="black" stroke-width="15"/>
<path d="M248 128C248 194.273 194.273 248 128 248C61.7266 248 8 194.273 8 128C8 61.7266 61.7266 8 128 8C194.273 8 248 61.7266 248 128Z" fill="#8CE36E" stroke="black" stroke-width="15"/>
<path d="M206 128C206 171.078 171.078 206 128 206C84.9219 206 50 171.078 50 128C50 84.9219 84.9219 50 128 50C171.078 50 206 84.9219 206 128Z" fill="white" stroke="black" stroke-width="15"/>
<path d="M128 83.0039C122.477 83.0039 118 87.4805 118 93.0039C118 98.5273 122.477 103.004 128 103.004C141.781 103.004 152.996 114.219 152.996 128C152.996 133.523 157.473 138 162.996 138C168.52 138 172.996 133.523 172.996 128C172.996 103.188 152.812 83.0039 128 83.0039V83.0039Z" fill="black"/>
</svg>
