<svg width="50" height="50" viewBox="0 0 50 50" fill="none" xmlns="http://www.w3.org/2000/svg">
<path d="M25.0001 49.0041C38.2571 49.0041 49.0041 38.2571 49.0041 25.0001C49.0041 11.743 38.2571 0.996094 25.0001 0.996094C11.743 0.996094 0.996094 11.743 0.996094 25.0001C0.996094 38.2571 11.743 49.0041 25.0001 49.0041Z" fill="#53D470"/>
<path d="M25 50C18.3222 50 12.0442 47.3996 7.32241 42.6777C2.6004 37.9558 0 31.6777 0 25C0 18.3223 2.6004 12.0442 7.32241 7.32231C12.0442 2.6004 18.3222 0 25 0C31.6778 0 37.9558 2.6004 42.6776 7.32231C47.3996 12.0442 50 18.3223 50 25C50 31.6777 47.3996 37.9558 42.6776 42.6777C37.9558 47.3996 31.6778 50 25 50ZM25 1.99203C12.3133 1.99203 1.99203 12.3133 1.99203 25C1.99203 37.6867 12.3133 48.008 25 48.008C37.6867 48.008 48.008 37.6867 48.008 25C48.008 12.3133 37.6867 1.99203 25 1.99203Z" fill="black"/>
<path d="M43.0557 18.8248C42.6596 18.8248 42.2851 18.5869 42.1298 18.1965C40.2203 13.3931 36.3533 9.5892 31.5203 7.76032C31.0057 7.5656 30.7464 6.9907 30.9413 6.47626C31.1361 5.96181 31.7108 5.70255 32.2253 5.89727C37.5805 7.92377 41.8653 12.1384 43.981 17.4605C44.1842 17.9717 43.9345 18.5509 43.4233 18.754C43.3027 18.802 43.1782 18.8248 43.0557 18.8248Z" fill="black"/>
<path d="M28.2879 6.85067C28.2323 6.85067 28.176 6.84598 28.1193 6.83632C27.0964 6.66202 26.0469 6.57357 24.9999 6.57357C24.4499 6.57357 24.0039 6.12766 24.0039 5.57756C24.0039 5.02746 24.4499 4.58154 24.9999 4.58154C26.1588 4.58154 27.3208 4.67945 28.4541 4.87268C28.9963 4.96511 29.361 5.47965 29.2685 6.02198C29.1857 6.50754 28.7645 6.85067 28.2879 6.85067Z" fill="black"/>
<path d="M20.0761 36.6331C18.7164 36.6331 17.6143 35.531 17.6143 34.1713V15.8281C17.6143 14.4684 18.7164 13.3662 20.0761 13.3662C21.4358 13.3662 22.538 14.4684 22.538 15.8281V34.1713C22.538 35.531 21.4358 36.6331 20.0761 36.6331Z" fill="#F5F5F5"/>
<path d="M20.0761 37.6296C18.1694 37.6296 16.6182 36.0784 16.6182 34.1717V15.8285C16.6182 13.9218 18.1694 12.3706 20.0761 12.3706C21.9828 12.3706 23.534 13.9218 23.534 15.8285V34.1717C23.534 36.0784 21.9828 37.6296 20.0761 37.6296ZM20.0761 14.3626C19.2679 14.3626 18.6102 15.0202 18.6102 15.8285V34.1717C18.6102 34.98 19.2679 35.6375 20.0761 35.6375C20.8844 35.6375 21.542 34.98 21.542 34.1717V15.8285C21.542 15.0202 20.8845 14.3626 20.0761 14.3626Z" fill="black"/>
<path d="M29.9238 36.6331C28.5641 36.6331 27.4619 35.531 27.4619 34.1713V15.8281C27.4619 14.4684 28.5641 13.3662 29.9238 13.3662C31.2834 13.3662 32.3856 14.4684 32.3856 15.8281V34.1713C32.3856 35.531 31.2834 36.6331 29.9238 36.6331Z" fill="#F5F5F5"/>
<path d="M29.9237 37.6296C28.017 37.6296 26.4658 36.0784 26.4658 34.1717V15.8285C26.4658 13.9218 28.017 12.3706 29.9237 12.3706C31.8305 12.3706 33.3817 13.9218 33.3817 15.8285V34.1717C33.3816 36.0784 31.8304 37.6296 29.9237 37.6296ZM29.9237 14.3626C29.1154 14.3626 28.4579 15.0202 28.4579 15.8285V34.1717C28.4579 34.98 29.1154 35.6375 29.9237 35.6375C30.732 35.6375 31.3896 34.98 31.3896 34.1717V15.8285C31.3895 15.0202 30.732 14.3626 29.9237 14.3626Z" fill="black"/>
</svg>
