<svg width="34" height="34" viewBox="0 0 34 34" fill="none" xmlns="http://www.w3.org/2000/svg">
<path d="M17.0043 32.75V32.75H17.0115H17.175C25.9703 32.75 33.1003 25.62 33.1003 16.8247C33.1003 8.02941 25.9703 0.899414 17.175 0.899414H17.0115V0.899379L17.0043 0.899449C16.4385 0.904884 15.8734 0.941714 15.3117 1.00977C7.29295 1.95415 1.25 8.75044 1.25 16.8247C1.25 24.899 7.29295 31.6953 15.3117 32.6396C15.8734 32.7077 16.4385 32.7445 17.0043 32.75Z" fill="#CFD8DC" stroke="black" stroke-width="1.5"/>
<path d="M28.8483 16.8246C28.8483 24.5361 23.0623 31.0202 15.4006 31.8949C7.75897 30.9955 2 24.519 2 16.8246C2 9.13022 7.75897 2.65374 15.4006 1.75439C23.0623 2.62905 28.8483 9.11317 28.8483 16.8246Z" fill="#F5F5F5"/>
<path d="M11.3379 9.82249V23.8272C11.3381 24.238 11.5542 24.6184 11.9069 24.8289C12.2596 25.0395 12.697 25.0492 13.0587 24.8544L25.8993 17.8521C26.2774 17.6485 26.5132 17.2537 26.5132 16.8243C26.5132 16.3948 26.2774 16 25.8993 15.7964L13.0587 8.79407C12.6968 8.59923 12.2591 8.60902 11.9064 8.81986C11.5536 9.0307 11.3377 9.41151 11.3379 9.82249V9.82249Z" fill="#53D470" stroke="black" stroke-width="1.5"/>
</svg>
