<?xml version="1.0" encoding="utf-8"?>
<!-- Generator: Adobe Illustrator 23.0.3, SVG Export Plug-In . SVG Version: 6.00 Build 0)  -->
<svg version="1.1" id="Layer_1" xmlns="http://www.w3.org/2000/svg" xmlns:xlink="http://www.w3.org/1999/xlink" x="0px" y="0px"
	 viewBox="0 0 502 502" style="enable-background:new 0 0 502 502;" xml:space="preserve">
<style type="text/css">
	.st0{fill:#5CC9C1;}
	.st1{fill:#FFFFFF;stroke:#000000;stroke-miterlimit:10;}
</style>
<g>
	<g>
		<circle class="st0" cx="251.8" cy="251" r="241"/>
		<path d="M251.8,502c-67,0-130.1-26.1-177.5-73.5S0.8,318,0.8,251S26.9,120.9,74.3,73.5S184.8,0,251.8,0
			c67,0,130.1,26.1,177.5,73.5c47.4,47.4,73.5,110.4,73.5,177.5s-26.1,130.1-73.5,177.5C381.9,475.9,318.9,502,251.8,502z M251.8,20
			c-127.4,0-231,103.6-231,231s103.6,231,231,231s231-103.6,231-231S379.2,20,251.8,20z"/>
	</g>
	<g>
		<g>
			<path class="st1" d="M296.8,240.5c-28.1,22-28.6,37.3-28.6,63.9c0,9.7-5.1,21-30.2,21c-21,0-28.1-7.7-28.1-34.2
				c0-44,19.4-64.9,34.2-77.7c16.9-14.3,45.5-30.2,45.5-57.7c0-23.5-20.4-34.8-46-34.8c-52.1,0-40.9,39.3-68.5,39.3
				c-13.8,0-30.7-9.2-30.7-29.1c0-27.6,31.7-68.5,100.7-68.5C310.6,62.7,354,99,354,147C354,195,310.6,229.8,296.8,240.5z
				 M277.9,400c0,21-17.4,39.3-39.3,39.3s-38.8-18.4-38.8-39.3c0-21.5,17.4-39.3,38.8-39.3C260,360.6,277.9,378.5,277.9,400z"/>
		</g>
		<g>
			<g>
				<path d="M245.2,62.7C310.6,62.7,354,99,354,147c0,48-43.4,82.8-57.2,93.5c-28.1,22-28.6,37.3-28.6,63.9c0,9.7-5.1,21-30.2,21
					c-21,0-28.1-7.7-28.1-34.2c0-44,19.4-64.9,34.2-77.7c16.9-14.3,45.5-30.2,45.5-57.7c0-23.5-20.4-34.8-46-34.8
					c-52.1,0-40.9,39.3-68.5,39.3c-13.8,0-30.7-9.2-30.7-29.1C144.5,103.6,176.2,62.7,245.2,62.7 M238.5,360.6
					c21.5,0,39.3,17.9,39.3,39.3c0,21-17.4,39.3-39.3,39.3c-22,0-38.8-18.4-38.8-39.3C199.7,378.5,217,360.6,238.5,360.6
					 M245.2,48.7c-43.3,0-70.2,14.7-85.1,27.1c-18.5,15.3-29.5,36-29.5,55.4c0,13.2,5.5,24.9,15.4,32.9c8,6.5,18.7,10.2,29.3,10.2
					c19,0,27.4-12.3,33.4-21.2c6.9-10.1,12.3-18.1,35.1-18.1c9.6,0,32,2,32,20.8c0,15.7-15.2,27.3-29.9,38.6
					c-3.8,2.9-7.3,5.6-10.6,8.4l0,0l0,0c-7.8,6.8-17.9,16.4-25.8,31.1c-8.8,16.2-13.3,35.4-13.3,57.2c0,17.4,2.8,28.2,9.5,36.1
					c9.2,10.9,23,12.1,32.6,12.1c15.1,0,26.2-3.4,33.9-10.5c6.7-6.1,10.2-14.6,10.2-24.5c0-24.5,0-34.7,23.2-52.8
					c6-4.7,22.1-17.2,36.2-35.2c17.5-22.3,26.4-45.7,26.4-69.4c0-27.9-12.5-53.2-35.2-71.1C310.4,58.1,280,48.7,245.2,48.7
					L245.2,48.7z M238.5,346.6c-29.1,0-52.8,23.9-52.8,53.3c0,29.4,23.7,53.3,52.8,53.3c14.3,0,27.8-5.7,37.9-16
					c9.8-10,15.4-23.6,15.4-37.3c0-14.1-5.6-27.5-15.7-37.6C266,352.2,252.6,346.6,238.5,346.6L238.5,346.6z"/>
			</g>
		</g>
	</g>
</g>
</svg>
