<svg width="512" height="512" viewBox="0 0 512 512" fill="none" xmlns="http://www.w3.org/2000/svg">
<path d="M299.04 100.416C292.648 94.328 282.528 94.568 276.416 100.96C270.32 107.36 270.568 117.488 276.96 123.584L399.688 240H80C71.168 240 64 247.168 64 256C64 264.832 71.168 272 80 272H399.136L276.96 388.416C270.56 394.512 270.32 404.64 276.416 411.04C279.56 414.336 283.784 416 288 416C291.968 416 295.936 414.536 299.04 411.584L438.6 278.584C444.664 272.52 448 264.504 448 256C448 247.496 444.664 239.48 438.32 233.136L299.04 100.416Z" fill="#FFC550"/>
</svg>
