<svg width="65" height="62" viewBox="0 0 65 62" fill="none" xmlns="http://www.w3.org/2000/svg">
<path d="M32.5 14C31.9337 14 31.4746 14.4591 31.4746 15.0254V17.2129C31.4746 17.7792 31.9337 18.2383 32.5 18.2383C33.0663 18.2383 33.5254 17.7792 33.5254 17.2129V15.0254C33.5254 14.4591 33.0663 14 32.5 14Z" fill="#FCFCFC"/>
<path d="M32.5 44.7617C31.9337 44.7617 31.4746 45.2208 31.4746 45.7871V47.9746C31.4746 48.5409 31.9337 49 32.5 49C33.0663 49 33.5254 48.5409 33.5254 47.9746V45.7871C33.5254 45.2208 33.0663 44.7617 32.5 44.7617Z" fill="#FCFCFC"/>
<path d="M23.1713 20.7207L21.6245 19.1739C21.224 18.7735 20.5747 18.7735 20.1744 19.1739C19.7739 19.5744 19.7739 20.2236 20.1744 20.624L21.7212 22.1709C21.9214 22.3711 22.1838 22.4712 22.4462 22.4712C22.7086 22.4712 22.9711 22.3711 23.1713 22.1709C23.5718 21.7704 23.5718 21.1211 23.1713 20.7207Z" fill="#FCFCFC"/>
<path d="M44.8266 42.3759L43.2797 40.8291C42.8793 40.4287 42.23 40.4287 41.8296 40.8291C41.4292 41.2295 41.4292 41.8788 41.8296 42.2792L43.3765 43.826C43.5766 44.0263 43.8391 44.1264 44.1015 44.1264C44.3639 44.1264 44.6264 44.0263 44.8266 43.826C45.227 43.4256 45.227 42.7763 44.8266 42.3759Z" fill="#FCFCFC"/>
<path d="M18.2129 30.4746H16.0254C15.4591 30.4746 15 30.9337 15 31.5C15 32.0663 15.4591 32.5254 16.0254 32.5254H18.2129C18.7792 32.5254 19.2383 32.0663 19.2383 31.5C19.2383 30.9337 18.7792 30.4746 18.2129 30.4746Z" fill="#FCFCFC"/>
<path d="M48.9746 30.4746H46.7871C46.2208 30.4746 45.7617 30.9337 45.7617 31.5C45.7617 32.0663 46.2208 32.5254 46.7871 32.5254H48.9746C49.5409 32.5254 50 32.0663 50 31.5C50 30.9337 49.5409 30.4746 48.9746 30.4746Z" fill="#FCFCFC"/>
<path d="M23.1713 40.8291C22.7709 40.4287 22.1216 40.4287 21.7212 40.8291L20.1744 42.3759C19.7739 42.7764 19.7739 43.4257 20.1744 43.826C20.3745 44.0263 20.6369 44.1264 20.8994 44.1264C21.1618 44.1264 21.4242 44.0263 21.6244 43.8261L23.1713 42.2792C23.5718 41.8788 23.5718 41.2295 23.1713 40.8291Z" fill="#FCFCFC"/>
<path d="M44.8266 19.174C44.4261 18.7737 43.7769 18.7737 43.3765 19.174L41.8296 20.7208C41.4292 21.1213 41.4292 21.7705 41.8296 22.1709C42.0298 22.3711 42.2922 22.4713 42.5547 22.4713C42.8171 22.4713 43.0795 22.3711 43.2797 22.171L44.8266 20.6241C45.227 20.2237 45.227 19.5744 44.8266 19.174Z" fill="#FCFCFC"/>
<path d="M32.5 20.6309C26.5067 20.6309 21.6309 25.5067 21.6309 31.5C21.6309 37.4933 26.5067 42.3691 32.5 42.3691C38.4933 42.3691 43.3691 37.4933 43.3691 31.5C43.3691 25.5067 38.4933 20.6309 32.5 20.6309ZM33.5254 40.2584V22.7416C37.9065 23.2513 41.3184 26.9844 41.3184 31.5C41.3184 36.0156 37.9065 39.7487 33.5254 40.2584Z" fill="#FCFCFC"/>
</svg>
