<svg width="65" height="62" viewBox="0 0 65 62" fill="none" xmlns="http://www.w3.org/2000/svg">
<g clip-path="url(#clip0)">
<path d="M27.9435 28.3932C27.5293 29.0145 27.2531 29.7049 27.115 30.3953H16C16.2071 26.6672 17.726 23.2154 20.0732 20.5229L27.9435 28.3932Z" fill="#FFD15C"/>
<path d="M27.115 32.5355C27.2531 33.2949 27.5293 33.9853 27.9435 34.5376L20.0732 42.477C17.726 39.7845 16.2071 36.3326 16 32.5355H27.115Z" fill="#ACB3BA"/>
<path d="M29.3937 36.0565C30.0151 36.4707 30.7055 36.7469 31.3958 36.885V48C27.6678 47.7929 24.2159 46.274 21.5234 43.9268L29.3937 36.0565Z" fill="#CDD6E0"/>
<path d="M33.5352 48V36.885C34.2945 36.7469 34.9849 36.4707 35.5372 36.0565L43.4766 43.9268C40.7841 46.274 37.3322 47.7929 33.5352 48Z" fill="#54C0EB"/>
<path d="M37.0566 34.6067C37.4709 33.9853 37.747 33.2949 37.8851 32.6046H49.0001C48.793 36.3326 47.2742 39.7845 44.9269 42.477L37.0566 34.6067Z" fill="#84DBFF"/>
<path d="M31.4649 26.1151C30.7055 26.2531 30.0151 26.5293 29.4628 26.9435L21.5234 19.0732C24.2159 16.7259 27.6678 15.2071 31.3958 15V26.1151H31.4649Z" fill="#F8B64C"/>
<path d="M37.8851 30.4644C37.747 29.705 37.4709 29.0146 37.0566 28.4623L44.9269 20.5229C47.2742 23.2154 48.7931 26.6673 49.0002 30.3954H37.8851V30.4644Z" fill="#F1543F"/>
<path d="M35.6066 26.9435C34.9852 26.5293 34.2948 26.2531 33.6045 26.1151V15C37.3325 15.2071 40.7844 16.726 43.4768 19.0732L35.6066 26.9435Z" fill="#FF7058"/>
</g>
<defs>
<clipPath id="clip0">
<rect width="33" height="33" fill="white" transform="matrix(1 0 0 -1 16 48)"/>
</clipPath>
</defs>
</svg>
