<svg width="65" height="62" viewBox="0 0 65 62" fill="none" xmlns="http://www.w3.org/2000/svg">
<path d="M32.8333 17C32.4542 17 32.1013 17.0999 31.7852 17.2598H31.7646L20.7292 22.9222C20.3022 23.0949 20 23.5112 20 24C20 24.4853 20.2977 24.9016 20.7201 25.0778V25.1006L31.7738 30.7448L31.7829 30.7402C32.1002 30.9012 32.453 31 32.8333 31C33.2137 31 33.5665 30.9012 33.8838 30.7402L33.8929 30.7448L44.9466 25.1006V25.0778C45.3689 24.9016 45.6667 24.4853 45.6667 24C45.6667 23.5112 45.3645 23.0949 44.9375 22.9222L33.902 17.2598H33.8815C33.5653 17.0999 33.2125 17 32.8333 17ZM22.8893 28.8148L20.7292 29.9222C20.3022 30.0949 20 30.5112 20 31C20 31.4853 20.2977 31.9016 20.7201 32.0778V32.1006L31.7738 37.7448L31.7829 37.7402C32.1002 37.9012 32.453 38 32.8333 38C33.2137 38 33.5665 37.9012 33.8838 37.7402L33.8929 37.7448L44.9466 32.1006V32.0778C45.3689 31.9016 45.6667 31.4853 45.6667 31C45.6667 30.5112 45.3645 30.0949 44.9375 29.9222L42.7773 28.8148C39.3882 30.5496 34.7623 32.9102 34.7087 32.93C34.1078 33.1983 33.4785 33.3333 32.8333 33.3333C32.1858 33.3333 31.5543 33.1972 30.9512 32.9277C30.8998 32.9091 26.2797 30.5508 22.8893 28.8148ZM22.8893 35.8148L20.7292 36.9222C20.3022 37.0949 20 37.5112 20 38C20 38.4853 20.2977 38.9016 20.7201 39.0778V39.1006L31.7738 44.7448L31.7829 44.7402C32.1002 44.9012 32.453 45 32.8333 45C33.2137 45 33.5665 44.9012 33.8838 44.7402L33.8929 44.7448L44.9466 39.1006V39.0778C45.3689 38.9016 45.6667 38.4853 45.6667 38C45.6667 37.5112 45.3645 37.0949 44.9375 36.9222L42.7773 35.8148C39.3882 37.5496 34.7623 39.9102 34.7087 39.93C34.1078 40.1983 33.4785 40.3333 32.8333 40.3333C32.1858 40.3333 31.5543 40.1972 30.9512 39.9277C30.8998 39.9091 26.2797 37.5508 22.8893 35.8148Z" fill="white"/>
</svg>
