<svg width="65" height="62" viewBox="0 0 65 62" fill="none" xmlns="http://www.w3.org/2000/svg">
<g clip-path="url(#clip0)">
<path d="M28.3258 18.3768H25.5722C25.1922 18.3768 24.8838 18.6852 24.8838 19.0652C24.8838 19.4452 25.1922 19.7536 25.5722 19.7536H28.3258C28.7072 19.7536 29.0142 19.4452 29.0142 19.0652C29.0142 18.6852 28.7072 18.3768 28.3258 18.3768Z" fill="white"/>
<path d="M36.5866 18.3768H33.8329C33.453 18.3768 33.1445 18.6852 33.1445 19.0652C33.1445 19.4452 33.453 19.7536 33.8329 19.7536H36.5866C36.9679 19.7536 37.275 19.4452 37.275 19.0652C37.275 18.6852 36.968 18.3768 36.5866 18.3768Z" fill="white"/>
<path d="M28.3258 39.7171H25.5722C25.1922 39.7171 24.8838 40.0255 24.8838 40.4055C24.8838 40.7855 25.1922 41.0939 25.5722 41.0939H28.3258C28.7072 41.0939 29.0142 40.7855 29.0142 40.4055C29.0142 40.0255 28.7072 39.7171 28.3258 39.7171Z" fill="white"/>
<path d="M36.5866 39.7171H33.8329C33.453 39.7171 33.1445 40.0255 33.1445 40.4055C33.1445 40.7855 33.453 41.0939 33.8329 41.0939H36.5866C36.9666 41.0939 37.275 40.7855 37.275 40.4055C37.275 40.0255 36.968 39.7171 36.5866 39.7171Z" fill="white"/>
<path d="M20.0654 32.1448C19.684 32.1448 19.377 32.4532 19.377 32.8332V35.5867C19.377 35.9667 19.6854 36.2752 20.0654 36.2752C20.4454 36.2752 20.7538 35.9667 20.7538 35.5867V32.8331C20.7538 32.4531 20.4468 32.1448 20.0654 32.1448Z" fill="white"/>
<path d="M20.0654 23.884C19.684 23.884 19.377 24.1924 19.377 24.5724V27.3259C19.377 27.7059 19.6854 28.0144 20.0654 28.0144C20.4467 28.0144 20.7538 27.7059 20.7538 27.3259V24.5723C20.7538 24.1923 20.4468 23.884 20.0654 23.884Z" fill="white"/>
<path d="M42.0937 32.1448C41.7137 32.1448 41.4053 32.4532 41.4053 32.8332V35.5867C41.4053 35.9667 41.7137 36.2752 42.0937 36.2752C42.4737 36.2752 42.7821 35.9667 42.7821 35.5867V32.8331C42.782 32.4531 42.475 32.1448 42.0937 32.1448Z" fill="white"/>
<path d="M42.0937 23.884C41.7123 23.884 41.4053 24.1924 41.4053 24.5724V27.3259C41.4053 27.7059 41.7137 28.0144 42.0937 28.0144C42.4737 28.0144 42.7821 27.7059 42.7821 27.3259V24.5723C42.782 24.1923 42.475 23.884 42.0937 23.884Z" fill="white"/>
<path d="M43.4713 17H40.7177C40.3377 17 40.0293 17.3084 40.0293 17.6884V20.442C40.0293 20.822 40.3377 21.1304 40.7177 21.1304H43.4713C43.8527 21.1304 44.1597 20.822 44.1597 20.442V17.6884C44.1597 17.3084 43.8527 17 43.4713 17Z" fill="white"/>
<path d="M21.443 17H18.6894C18.3094 17 18.001 17.3084 18.001 17.6884V20.442C18.001 20.822 18.3094 21.1304 18.6894 21.1304H21.443C21.8244 21.1304 22.1314 20.822 22.1314 20.442V17.6884C22.1314 17.3084 21.8244 17 21.443 17Z" fill="white"/>
<path d="M21.442 38.3403H18.6884C18.3084 38.3403 18 38.6487 18 39.0287V41.7823C18 42.1623 18.3084 42.4707 18.6884 42.4707H21.442C21.8234 42.4707 22.1304 42.1623 22.1304 41.7823V39.0287C22.1304 38.6487 21.8234 38.3403 21.442 38.3403Z" fill="white"/>
<path d="M50.6895 41.8691L38.2983 34.9851C38.0422 34.8433 37.7255 34.8777 37.5094 35.0704C37.2905 35.2632 37.2161 35.5716 37.3249 35.8428L42.832 49.6107C42.9353 49.8696 43.1845 50.0403 43.4626 50.0431C43.4654 50.0431 43.4681 50.0431 43.4709 50.0431C43.7463 50.0431 43.9955 49.8792 44.1042 49.6259L46.0607 45.0605L50.6261 43.104C50.867 43.0008 51.0281 42.7681 51.0419 42.5065C51.0556 42.2449 50.918 41.9971 50.6895 41.8691Z" fill="white"/>
</g>
<defs>
<clipPath id="clip0">
<rect width="33.0431" height="33.0431" fill="white" transform="translate(18 17)"/>
</clipPath>
</defs>
</svg>
