<svg width="65" height="62" viewBox="0 0 65 62" fill="none" xmlns="http://www.w3.org/2000/svg">
<path d="M39.1069 34.6662C40.1643 32.9996 40.7736 31.0104 40.7736 28.8778C40.7736 22.8744 35.8991 18 29.8957 18C23.8744 18 19 22.8744 19 28.8778C19 34.8812 23.8744 39.7556 29.8778 39.7556C32.1896 39.7556 34.3401 39.0388 36.0963 37.8023L42.2072 43.9132C42.6373 44.3433 43.1928 44.5584 43.7484 44.5584C44.3039 44.5584 44.8595 44.3433 45.2896 43.9132C46.1318 43.071 46.1318 41.6911 45.2896 40.8309L39.1069 34.6662ZM29.8778 36.2432C25.8098 36.2432 22.5124 32.9458 22.5124 28.8778C22.5124 24.8098 25.8098 21.5124 29.8778 21.5124C33.9458 21.5124 37.2432 24.8098 37.2432 28.8778C37.2432 32.9458 33.9458 36.2432 29.8778 36.2432Z" fill="white"/>
<path d="M33.4439 27.8384H31.2755V25.67C31.2755 24.8994 30.6483 24.2722 29.8777 24.2722C29.1071 24.2722 28.4799 24.8994 28.4799 25.67V27.8384H26.3294C25.5589 27.8384 24.9316 28.4656 24.9316 29.2362C24.9316 30.0068 25.5589 30.634 26.3294 30.634H28.4978V32.8024C28.4978 33.573 29.1251 34.2002 29.8957 34.2002C30.6662 34.2002 31.2935 33.573 31.2935 32.8024V30.634H33.4619C34.2324 30.634 34.8597 30.0068 34.8597 29.2362C34.8417 28.4656 34.2145 27.8384 33.4439 27.8384Z" fill="white"/>
</svg>
