<svg width="32" height="32" viewBox="0 0 32 32" fill="none" xmlns="http://www.w3.org/2000/svg">
<g clip-path="url(#clip0)">
<path d="M16 6.46252C9.88606 6.46252 4.34162 9.80752 0.250384 15.2407C-0.0834612 15.6858 -0.0834612 16.3077 0.250384 16.7528C4.34162 22.1925 9.88606 25.5375 16 25.5375C22.1139 25.5375 27.6584 22.1925 31.7496 16.7593C32.0835 16.3142 32.0835 15.6924 31.7496 15.2472C27.6584 9.80752 22.1139 6.46252 16 6.46252ZM16.4386 22.7162C12.3801 22.9715 9.02854 19.6265 9.28383 15.5614C9.4933 12.2099 12.2099 9.49331 15.5614 9.28384C19.6199 9.02855 22.9715 12.3735 22.7162 16.4386C22.5002 19.7836 19.7836 22.5002 16.4386 22.7162ZM16.2357 19.6134C14.0493 19.7509 12.2426 17.9507 12.3866 15.7644C12.4979 13.9577 13.9642 12.4979 15.7709 12.3801C17.9572 12.2426 19.7639 14.0428 19.6199 16.2291C19.5021 18.0424 18.0358 19.5021 16.2357 19.6134Z" fill="#3BC57F"/>
</g>
<defs>
<clipPath id="clip0">
<rect width="32" height="32" fill="white"/>
</clipPath>
</defs>
</svg>
