<svg width="57" height="63" viewBox="0 0 57 63" fill="none" xmlns="http://www.w3.org/2000/svg">
<path d="M31.4088 62.2213L53.651 49.378C55.4512 48.3379 56.5586 46.4194 56.5586 44.3424L56.5586 18.657C56.5586 16.5801 55.4512 14.6621 53.651 13.6213L31.4088 0.778771C29.6088 -0.259592 27.3935 -0.259592 25.5932 0.778771L3.34903 13.6213C1.54881 14.6621 0.441318 16.5801 0.441318 18.657L0.441317 44.3423C0.441316 46.4194 1.54881 48.3379 3.34902 49.3779L25.5932 62.2213C27.3935 63.2595 29.6087 63.2595 31.4088 62.2213Z" fill="#333333"/>
<path d="M17.8218 29.955H15.7018V36H14.1968V29.955H12.0768V28.745H17.8218V29.955ZM25.5171 32.37C25.5171 32.9 25.4271 33.3917 25.2471 33.845C25.0704 34.2983 24.8187 34.69 24.4921 35.02C24.1687 35.35 23.7787 35.61 23.3221 35.8C22.8654 35.9867 22.3587 36.08 21.8021 36.08C21.2454 36.08 20.7387 35.9867 20.2821 35.8C19.8254 35.61 19.4337 35.35 19.1071 35.02C18.7804 34.69 18.5271 34.2983 18.3471 33.845C18.1704 33.3917 18.0821 32.9 18.0821 32.37C18.0821 31.84 18.1704 31.35 18.3471 30.9C18.5271 30.4467 18.7804 30.055 19.1071 29.725C19.4337 29.395 19.8254 29.1367 20.2821 28.95C20.7387 28.76 21.2454 28.665 21.8021 28.665C22.3587 28.665 22.8654 28.76 23.3221 28.95C23.7787 29.1367 24.1687 29.3967 24.4921 29.73C24.8187 30.06 25.0704 30.4517 25.2471 30.905C25.4271 31.355 25.5171 31.8433 25.5171 32.37ZM23.9821 32.37C23.9821 31.99 23.9321 31.65 23.8321 31.35C23.7321 31.0467 23.5871 30.79 23.3971 30.58C23.2104 30.3667 22.9821 30.205 22.7121 30.095C22.4454 29.9817 22.1421 29.925 21.8021 29.925C21.4621 29.925 21.1571 29.9817 20.8871 30.095C20.6171 30.205 20.3871 30.3667 20.1971 30.58C20.0104 30.79 19.8671 31.0467 19.7671 31.35C19.6671 31.65 19.6171 31.99 19.6171 32.37C19.6171 32.7533 19.6671 33.0967 19.7671 33.4C19.8671 33.7 20.0104 33.955 20.1971 34.165C20.3871 34.375 20.6171 34.5367 20.8871 34.65C21.1571 34.76 21.4621 34.815 21.8021 34.815C22.1421 34.815 22.4454 34.76 22.7121 34.65C22.9821 34.5367 23.2104 34.375 23.3971 34.165C23.5871 33.955 23.7321 33.7 23.8321 33.4C23.9321 33.0967 23.9821 32.7533 23.9821 32.37ZM33.1175 32.37C33.1175 32.9 33.0275 33.3883 32.8475 33.835C32.6709 34.2783 32.4192 34.66 32.0925 34.98C31.7692 35.3 31.3792 35.55 30.9225 35.73C30.4659 35.91 29.9592 36 29.4025 36H26.6125V28.745H29.4025C29.9592 28.745 30.4659 28.835 30.9225 29.015C31.3792 29.195 31.7692 29.4467 32.0925 29.77C32.4192 30.09 32.6709 30.4717 32.8475 30.915C33.0275 31.3583 33.1175 31.8433 33.1175 32.37ZM31.5775 32.37C31.5775 31.99 31.5275 31.6483 31.4275 31.345C31.3275 31.0417 31.1842 30.785 30.9975 30.575C30.8109 30.365 30.5825 30.2033 30.3125 30.09C30.0459 29.9767 29.7425 29.92 29.4025 29.92H28.1225V34.825H29.4025C29.7425 34.825 30.0459 34.77 30.3125 34.66C30.5825 34.5467 30.8109 34.385 30.9975 34.175C31.1842 33.9617 31.3275 33.7033 31.4275 33.4C31.5275 33.0967 31.5775 32.7533 31.5775 32.37ZM41.23 32.37C41.23 32.9 41.14 33.3917 40.96 33.845C40.7833 34.2983 40.5316 34.69 40.205 35.02C39.8816 35.35 39.4916 35.61 39.035 35.8C38.5783 35.9867 38.0716 36.08 37.515 36.08C36.9583 36.08 36.4516 35.9867 35.995 35.8C35.5383 35.61 35.1466 35.35 34.82 35.02C34.4933 34.69 34.24 34.2983 34.06 33.845C33.8833 33.3917 33.795 32.9 33.795 32.37C33.795 31.84 33.8833 31.35 34.06 30.9C34.24 30.4467 34.4933 30.055 34.82 29.725C35.1466 29.395 35.5383 29.1367 35.995 28.95C36.4516 28.76 36.9583 28.665 37.515 28.665C38.0716 28.665 38.5783 28.76 39.035 28.95C39.4916 29.1367 39.8816 29.3967 40.205 29.73C40.5316 30.06 40.7833 30.4517 40.96 30.905C41.14 31.355 41.23 31.8433 41.23 32.37ZM39.695 32.37C39.695 31.99 39.645 31.65 39.545 31.35C39.445 31.0467 39.3 30.79 39.11 30.58C38.9233 30.3667 38.695 30.205 38.425 30.095C38.1583 29.9817 37.855 29.925 37.515 29.925C37.175 29.925 36.87 29.9817 36.6 30.095C36.33 30.205 36.1 30.3667 35.91 30.58C35.7233 30.79 35.58 31.0467 35.48 31.35C35.38 31.65 35.33 31.99 35.33 32.37C35.33 32.7533 35.38 33.0967 35.48 33.4C35.58 33.7 35.7233 33.955 35.91 34.165C36.1 34.375 36.33 34.5367 36.6 34.65C36.87 34.76 37.175 34.815 37.515 34.815C37.855 34.815 38.1583 34.76 38.425 34.65C38.695 34.5367 38.9233 34.375 39.11 34.165C39.3 33.955 39.445 33.7 39.545 33.4C39.645 33.0967 39.695 32.7533 39.695 32.37ZM46.2554 30.135C46.2088 30.2117 46.1604 30.2683 46.1104 30.305C46.0638 30.3383 46.0021 30.355 45.9254 30.355C45.8521 30.355 45.7721 30.33 45.6854 30.28C45.6021 30.2267 45.5038 30.17 45.3904 30.11C45.2771 30.05 45.1471 29.995 45.0004 29.945C44.8538 29.8917 44.6821 29.865 44.4854 29.865C44.1388 29.865 43.8788 29.9433 43.7054 30.1C43.5321 30.2533 43.4454 30.455 43.4454 30.705C43.4454 30.865 43.4921 30.9983 43.5854 31.105C43.6821 31.2083 43.8071 31.2983 43.9604 31.375C44.1171 31.4517 44.2938 31.52 44.4904 31.58C44.6871 31.64 44.8888 31.7067 45.0954 31.78C45.3021 31.85 45.5038 31.9333 45.7004 32.03C45.8971 32.1267 46.0721 32.2483 46.2254 32.395C46.3821 32.5417 46.5071 32.7217 46.6004 32.935C46.6971 33.145 46.7454 33.4017 46.7454 33.705C46.7454 34.035 46.6871 34.345 46.5704 34.635C46.4571 34.9217 46.2921 35.1733 46.0754 35.39C45.8588 35.6033 45.5904 35.7717 45.2704 35.895C44.9538 36.0183 44.5938 36.08 44.1904 36.08C43.9604 36.08 43.7304 36.0567 43.5004 36.01C43.2738 35.9633 43.0538 35.8983 42.8404 35.815C42.6304 35.7317 42.4321 35.6317 42.2454 35.515C42.0588 35.3983 41.8954 35.2683 41.7554 35.125L42.1954 34.415C42.2321 34.3617 42.2804 34.3183 42.3404 34.285C42.4004 34.2483 42.4638 34.23 42.5304 34.23C42.6204 34.23 42.7154 34.2633 42.8154 34.33C42.9154 34.3967 43.0304 34.47 43.1604 34.55C43.2904 34.63 43.4404 34.7033 43.6104 34.77C43.7838 34.8367 43.9904 34.87 44.2304 34.87C44.5804 34.87 44.8504 34.79 45.0404 34.63C45.2338 34.47 45.3304 34.2317 45.3304 33.915C45.3304 33.7317 45.2821 33.5833 45.1854 33.47C45.0921 33.3567 44.9688 33.2617 44.8154 33.185C44.6621 33.1083 44.4871 33.0433 44.2904 32.99C44.0938 32.9333 43.8921 32.8717 43.6854 32.805C43.4788 32.7383 43.2771 32.6583 43.0804 32.565C42.8838 32.4717 42.7088 32.3483 42.5554 32.195C42.4021 32.0417 42.2771 31.8517 42.1804 31.625C42.0871 31.3983 42.0404 31.1167 42.0404 30.78C42.0404 30.51 42.0938 30.2483 42.2004 29.995C42.3071 29.7417 42.4638 29.5167 42.6704 29.32C42.8771 29.1233 43.1304 28.965 43.4304 28.845C43.7338 28.725 44.0804 28.665 44.4704 28.665C44.9071 28.665 45.3104 28.7333 45.6804 28.87C46.0538 29.0033 46.3688 29.19 46.6254 29.43L46.2554 30.135Z" fill="white"/>
</svg>
