<svg width="30" height="30" viewBox="0 0 30 30" fill="none" xmlns="http://www.w3.org/2000/svg">
<path d="M7.19378 17.0369C7.01343 16.3158 6.92333 15.6368 6.92333 14.9998V12.6918C6.92333 12.3794 6.8091 12.109 6.58082 11.8806C6.35243 11.6523 6.0821 11.5381 5.76959 11.5381C5.45689 11.5381 5.18644 11.6523 4.95811 11.8806C4.72971 12.109 4.61548 12.3794 4.61548 12.6918V14.9996C4.61548 16.3338 4.868 17.6198 5.37278 18.8582L7.19378 17.0369Z" fill="#E0E0E0"/>
<path d="M15 20.7683C16.5866 20.7683 17.945 20.2034 19.0742 19.0741C20.2039 17.9448 20.7688 16.5862 20.7688 14.9996V12.6919L27.2772 6.18368C27.3973 6.06352 27.4574 5.92523 27.4574 5.76901C27.4574 5.61278 27.3973 5.4745 27.2772 5.35433L25.7991 3.8759C25.6785 3.75554 25.5404 3.69556 25.3843 3.69556C25.2282 3.69556 25.09 3.75554 24.9698 3.8759L2.72269 26.1231C2.60253 26.2432 2.5426 26.3816 2.5426 26.5375C2.5426 26.694 2.60253 26.8323 2.72269 26.9524L4.201 28.4307C4.32123 28.5509 4.45958 28.6107 4.61567 28.6107C4.77196 28.6107 4.91025 28.5509 5.03035 28.4307L9.60961 23.8515C10.9314 24.6691 12.3438 25.1558 13.8462 25.3118V27.6919H9.23099C8.91848 27.6919 8.64784 27.8062 8.41976 28.0346C8.1913 28.2628 8.07688 28.5333 8.07688 28.8458C8.07688 29.1578 8.1913 29.4289 8.41976 29.6571C8.64784 29.8853 8.91848 29.9998 9.23099 29.9998H20.7688C21.0813 29.9998 21.3518 29.8853 21.5801 29.6571C21.8087 29.4289 21.9228 29.1579 21.9228 28.8458C21.9228 28.5334 21.8087 28.2628 21.5801 28.0346C21.3519 27.8062 21.0813 27.6919 20.7688 27.6919H16.1537V25.3118C18.7618 25.0236 20.952 23.8969 22.7251 21.9319C24.4977 19.967 25.3842 17.6562 25.3842 15V12.6918C25.3842 12.3794 25.27 12.109 25.0418 11.8807C24.8132 11.6523 24.5429 11.5381 24.2304 11.5381C23.9181 11.5381 23.6476 11.6523 23.4191 11.8807C23.1907 12.109 23.0766 12.3794 23.0766 12.6918V14.9996C23.0766 17.2232 22.2861 19.1251 20.7058 20.7054C19.1255 22.2856 17.2233 23.0761 14.9999 23.0761C13.7018 23.0761 12.4699 22.7699 11.304 22.1566L13.0347 20.4264C13.6841 20.6546 14.3391 20.7683 15 20.7683Z" fill="#E0E0E0"/>
<path d="M18.3264 1.06394C17.3347 0.354752 16.2259 0 15 0C13.4135 0 12.0552 0.565217 10.9256 1.69483C9.79592 2.82451 9.23108 4.18271 9.23108 5.7693V14.9997L20.4266 3.80415C20.0177 2.68641 19.318 1.77294 18.3264 1.06394Z" fill="#E0E0E0"/>
</svg>
