<svg width="29" height="29" viewBox="0 0 29 29" fill="none" xmlns="http://www.w3.org/2000/svg">
<path d="M19.4157 19.5964C19.4112 18.3954 19.033 17.472 18.2811 16.8255L22.8949 11.4592C23.2898 11.7987 23.746 11.9601 24.2625 11.9424C24.7796 11.9252 25.1945 11.7348 25.5068 11.3716C25.8193 11.0082 25.9451 10.5696 25.8846 10.0558C25.8247 9.54244 25.5968 9.11555 25.2019 8.77602L17.9111 2.50752C17.5161 2.16788 17.0602 2.00686 16.5433 2.02423C16.0263 2.04158 15.6118 2.23187 15.2993 2.59533C14.9869 2.95872 14.8608 3.39719 14.9212 3.91088C14.9815 4.4245 15.2092 4.85115 15.6041 5.19069L10.9904 10.5568C10.2385 9.91036 9.26869 9.67504 8.08068 9.85065C6.89271 10.0264 5.92939 10.5436 5.19026 11.4033C5.03409 11.5849 4.97106 11.8042 5.00129 12.061C5.03166 12.3178 5.14545 12.5311 5.34293 12.7009L9.94534 16.658L6.44057 22.4857C6.31622 22.707 6.35677 22.9057 6.56183 23.082L6.57344 23.092C6.66417 23.17 6.76792 23.2076 6.88338 23.2037C6.99892 23.1997 7.10042 23.1623 7.18764 23.0915L12.121 18.5286L17.0083 22.7306C17.2057 22.9004 17.4338 22.9811 17.692 22.9723C17.9505 22.9639 18.158 22.8688 18.3142 22.6871C19.0533 21.8276 19.4201 20.7973 19.4157 19.5964ZM13.8304 12.4157C13.7464 12.5134 13.6433 12.5643 13.5207 12.5685C13.3982 12.5726 13.2838 12.5289 13.1775 12.4375C13.0713 12.3462 13.0109 12.2397 12.9966 12.1179C12.9823 11.9963 13.0173 11.8865 13.1013 11.7888L17.1384 7.09342C17.2224 6.99562 17.3258 6.94441 17.4481 6.94044C17.5705 6.93644 17.685 6.98014 17.7912 7.07147C17.8975 7.16286 17.9579 7.26934 17.9722 7.39103C17.9865 7.51268 17.9515 7.62248 17.8674 7.72027L13.8304 12.4157Z" fill="#3BC57F"/>
</svg>
