<svg width="17" height="17" viewBox="0 0 17 17" fill="none" xmlns="http://www.w3.org/2000/svg">
<path d="M8.50066 0C3.80779 0 0.000640869 3.80235 0.000640869 8.49553C0.000640869 13.1932 3.80779 17 8.50062 17C13.196 17 17 13.1932 17 8.49553C17 3.80235 13.196 0 8.50066 0ZM9.10637 13.2252C8.90895 13.4009 8.68017 13.4891 8.42099 13.4891C8.15283 13.4891 7.91892 13.4024 7.71926 13.2287C7.51929 13.0552 7.41911 12.8124 7.41911 12.5004C7.41911 12.2236 7.51606 11.9906 7.70934 11.8018C7.90263 11.613 8.13972 11.5187 8.42099 11.5187C8.69776 11.5187 8.93072 11.613 9.11983 11.8018C9.30863 11.9906 9.40334 12.2236 9.40334 12.5004C9.40299 12.8079 9.3041 13.0495 9.10637 13.2252ZM11.568 7.12248C11.4163 7.40374 11.2362 7.64627 11.0272 7.85077C10.8189 8.05523 10.4442 8.39889 9.90343 8.88206C9.75432 9.01838 9.63434 9.13805 9.54443 9.24107C9.45452 9.34444 9.38732 9.4388 9.34347 9.52457C9.2993 9.61031 9.26541 9.69609 9.24139 9.78183C9.21738 9.86725 9.18124 10.018 9.13227 10.2333C9.0491 10.6903 8.78767 10.9187 8.34832 10.9187C8.11984 10.9187 7.92786 10.8441 7.77138 10.6947C7.61554 10.5453 7.53779 10.3235 7.53779 10.0292C7.53779 9.66023 7.59507 9.34054 7.7093 9.07018C7.82291 8.79978 7.9749 8.56269 8.1637 8.35823C8.35281 8.15376 8.6075 7.9112 8.92844 7.62993C9.2097 7.38386 9.41291 7.1983 9.53801 7.07315C9.66343 6.94774 9.76873 6.80823 9.85415 6.65462C9.94024 6.50071 9.98248 6.334 9.98248 6.15386C9.98248 5.80221 9.85226 5.50591 9.59052 5.26433C9.3291 5.02275 8.99182 4.90178 8.57872 4.90178C8.09524 4.90178 7.73942 5.02369 7.51094 5.26752C7.28247 5.51134 7.08954 5.87035 6.93114 6.3449C6.78139 6.84153 6.49788 7.08981 6.08093 7.08981C5.83486 7.08981 5.62721 7.00308 5.45794 6.82964C5.28898 6.6562 5.20451 6.46839 5.20451 6.26617C5.20451 5.8489 5.33858 5.42588 5.60642 4.99743C5.87458 4.56898 6.26559 4.21411 6.77978 3.93316C7.29365 3.6519 7.89365 3.51109 8.57872 3.51109C9.21581 3.51109 9.77802 3.62883 10.2657 3.86404C10.7533 4.09889 11.1302 4.41857 11.3962 4.82301C11.6618 5.22713 11.7948 5.66648 11.7948 6.14103C11.7955 6.51386 11.7197 6.84122 11.568 7.12248Z" fill="#333333"/>
</svg>
