<svg width="19" height="19" viewBox="0 0 19 19" fill="none" xmlns="http://www.w3.org/2000/svg">
<path d="M18.477 3.04054L12.0175 9.5L18.477 15.9595C19.1743 16.6568 19.1743 17.7796 18.477 18.477C17.7796 19.1743 16.6568 19.1743 15.9595 18.477L9.5 12.0175L3.04054 18.477C2.34316 19.1743 1.22042 19.1743 0.523038 18.477C-0.174346 17.7796 -0.174346 16.6568 0.523038 15.9595L6.98249 9.5L0.523038 3.04054C-0.174346 2.34316 -0.174346 1.22042 0.523038 0.523037C1.22042 -0.174347 2.34316 -0.174347 3.04054 0.523037L9.5 6.98249L15.9595 0.523037C16.6568 -0.174347 17.7796 -0.174347 18.477 0.523037C19.1694 1.22042 19.1694 2.34811 18.477 3.04054Z" fill="#272E2E"/>
</svg>
