<svg width="30" height="30" viewBox="0 0 30 30" fill="none" xmlns="http://www.w3.org/2000/svg">
<path d="M14.9999 20.7687C16.5867 20.7687 17.9446 20.2038 19.0743 19.0745C20.2039 17.9452 20.7687 16.5866 20.7687 15V5.76939C20.7687 4.18277 20.2043 2.82474 19.0743 1.69485C17.9446 0.565225 16.5867 0 14.9999 0C13.4134 0 12.0553 0.565225 10.9254 1.69485C9.79556 2.82455 9.23071 4.18277 9.23071 5.76939V15C9.23071 16.5865 9.79581 17.9452 10.9254 19.0745C12.0551 20.2038 13.4134 20.7687 14.9999 20.7687Z" fill="#AFEA7D"/>
<path d="M25.0416 11.881C24.8139 11.6526 24.5429 11.5383 24.2304 11.5383C23.9182 11.5383 23.6478 11.6526 23.4192 11.881C23.191 12.1093 23.0768 12.3797 23.0768 12.6921V14.9999C23.0768 17.2235 22.2864 19.1255 20.7058 20.706C19.1258 22.2865 17.2236 23.0768 14.9999 23.0768C12.7762 23.0768 10.8743 22.2865 9.29364 20.706C7.71321 19.1259 6.92305 17.2236 6.92305 14.9999V12.6921C6.92305 12.3797 6.80882 12.1093 6.58055 11.881C6.35214 11.6526 6.082 11.5383 5.7693 11.5383C5.4566 11.5383 5.18614 11.6526 4.95787 11.881C4.7294 12.1093 4.61523 12.3797 4.61523 12.6921V14.9999C4.61523 17.6562 5.50181 19.9669 7.27446 21.9319C9.04718 23.8969 11.2377 25.0236 13.846 25.3119V27.6919H9.23068C8.91817 27.6919 8.64778 27.8063 8.41944 28.0347C8.19104 28.2629 8.0768 28.5334 8.0768 28.8459C8.0768 29.1579 8.19104 29.429 8.41944 29.6572C8.64778 29.8854 8.91817 29.9999 9.23068 29.9999H20.7688C21.0812 29.9999 21.352 29.8854 21.58 29.6572C21.8087 29.429 21.923 29.158 21.923 28.8459C21.923 28.5335 21.8087 28.263 21.58 28.0347C21.352 27.8063 21.0813 27.6919 20.7688 27.6919H16.154V25.3119C18.7619 25.0236 20.9522 23.8969 22.7251 21.9319C24.498 19.9669 25.3848 17.6562 25.3848 14.9999V12.6921C25.3848 12.3798 25.2704 12.1096 25.0416 11.881Z" fill="#AFEA7D"/>
</svg>
