<svg width="22" height="22" viewBox="0 0 22 22" fill="none" xmlns="http://www.w3.org/2000/svg">
<path d="M9.13964 2.72965L4.96097 5.85888H1.14484C0.515178 5.85888 0 6.37405 0 7.00372V14.9794C0 15.6093 0.515178 16.1243 1.14484 16.1243H4.96097L9.13964 19.2535C9.90286 19.8259 10.9714 19.2917 10.9714 18.3376V3.64552C10.9714 2.69149 9.88378 2.15723 9.13964 2.72965Z" fill="#333333"/>
<path d="M14.7493 4.59957C14.2341 4.08439 13.3755 4.08439 12.8605 4.59957C12.3453 5.11475 12.3453 5.97338 12.8605 6.48855C15.341 8.96904 15.341 12.9952 12.8605 15.4757C12.3453 15.9909 12.3453 16.8495 12.8605 17.3645C13.1274 17.6317 13.4709 17.7461 13.7953 17.7461C14.1196 17.7461 14.4824 17.6128 14.7302 17.3454C18.2792 13.8537 18.2792 8.12949 14.7493 4.59957Z" fill="#333333"/>
<path d="M16.2376 1.60391C15.7226 2.11909 15.7226 2.97772 16.2376 3.49289C18.241 5.49636 19.3479 8.14857 19.3479 10.9916C19.3479 13.8346 18.241 16.4868 16.2376 18.4903C15.7226 19.0055 15.7226 19.8641 16.2376 20.3793C16.5047 20.6462 16.8481 20.78 17.1725 20.78C17.516 20.78 17.8594 20.6464 18.1075 20.3984C20.607 17.8988 21.9997 14.5597 21.9997 11.0107C21.9997 7.46167 20.6259 4.14164 18.1075 1.62299C17.6114 1.08873 16.7718 1.08873 16.2376 1.60391Z" fill="#333333"/>
</svg>
