<svg width="32" height="32" viewBox="0 0 32 32" fill="none" xmlns="http://www.w3.org/2000/svg">
<g clip-path="url(#clip0)">
<path d="M16 6.46249C9.88606 6.46249 4.34162 9.80749 0.250384 15.2406C-0.0834612 15.6858 -0.0834612 16.3076 0.250384 16.7528C4.34162 22.1925 9.88606 25.5375 16 25.5375C22.1139 25.5375 27.6584 22.1925 31.7496 16.7593C32.0835 16.3142 32.0835 15.6923 31.7496 15.2472C27.6584 9.80749 22.1139 6.46249 16 6.46249ZM16.4386 22.7161C12.3801 22.9714 9.02854 19.6264 9.28383 15.5614C9.4933 12.2099 12.2099 9.49328 15.5614 9.28381C19.6199 9.02852 22.9715 12.3735 22.7162 16.4386C22.5002 19.7836 19.7836 22.5001 16.4386 22.7161ZM16.2357 19.6134C14.0493 19.7508 12.2426 17.9507 12.3866 15.7643C12.4979 13.9576 13.9642 12.4979 15.7709 12.3801C17.9572 12.2426 19.7639 14.0427 19.6199 16.2291C19.5021 18.0423 18.0358 19.5021 16.2357 19.6134Z" fill="#828282"/>
</g>
<defs>
<clipPath id="clip0">
<rect width="32" height="32" fill="white"/>
</clipPath>
</defs>
</svg>
