<svg width="36" height="39" viewBox="0 0 36 39" fill="none" xmlns="http://www.w3.org/2000/svg">
<path d="M29.664 10.8096L19.5396 4.75551C18.5915 4.18855 17.4085 4.18856 16.4604 4.75551L6.336 10.8096C5.43021 11.3512 4.87564 12.329 4.87564 13.3844V25.6156C4.87564 26.671 5.43021 27.6488 6.336 28.1904L16.4604 34.2445C17.4085 34.8114 18.5915 34.8114 19.5396 34.2445L29.664 28.1904C30.5698 27.6488 31.1244 26.671 31.1244 25.6156V13.3844C31.1244 12.329 30.5698 11.3512 29.664 10.8096Z" stroke="#828282" stroke-width="2"/>
<circle cx="18.5" cy="4.5" r="3.5" fill="#828282"/>
<circle cx="30.5" cy="12.5" r="3.5" fill="#828282"/>
<circle cx="30.5" cy="26.5" r="3.5" fill="#828282"/>
<circle cx="18.5" cy="34.5" r="3.5" fill="#828282"/>
<circle cx="5.5" cy="26.5" r="3.5" fill="#828282"/>
<circle cx="5.5" cy="12.5" r="3.5" fill="#828282"/>
</svg>
