<svg width="32" height="32" viewBox="0 0 32 32" fill="none" xmlns="http://www.w3.org/2000/svg">
<g clip-path="url(#clip0)">
<path d="M30.21 12.89V14H25.41V12.89H27.168V7.832C27.168 7.632 27.174 7.426 27.186 7.214L25.938 8.258C25.866 8.314 25.794 8.35 25.722 8.366C25.654 8.378 25.588 8.378 25.524 8.366C25.464 8.354 25.41 8.334 25.362 8.306C25.314 8.274 25.278 8.24 25.254 8.204L24.786 7.562L27.432 5.312H28.65V12.89H30.21Z" fill="#3BC57F"/>
<path d="M27.132 23.474L26.832 23.846C27 23.762 27.18 23.698 27.372 23.654C27.568 23.606 27.778 23.582 28.002 23.582C28.33 23.582 28.648 23.636 28.956 23.744C29.268 23.852 29.542 24.016 29.778 24.236C30.014 24.452 30.204 24.722 30.348 25.046C30.492 25.37 30.564 25.748 30.564 26.18C30.564 26.584 30.49 26.964 30.342 27.32C30.194 27.672 29.986 27.98 29.718 28.244C29.45 28.508 29.126 28.716 28.746 28.868C28.37 29.02 27.954 29.096 27.498 29.096C27.034 29.096 26.618 29.022 26.25 28.874C25.882 28.726 25.568 28.52 25.308 28.256C25.048 27.988 24.848 27.668 24.708 27.296C24.572 26.92 24.504 26.504 24.504 26.048C24.504 25.64 24.586 25.222 24.75 24.794C24.918 24.362 25.176 23.914 25.524 23.45L27.594 20.672C27.666 20.576 27.77 20.494 27.906 20.426C28.046 20.358 28.206 20.324 28.386 20.324H29.706L27.132 23.474ZM27.468 27.884C27.704 27.884 27.92 27.844 28.116 27.764C28.316 27.684 28.486 27.572 28.626 27.428C28.77 27.284 28.882 27.116 28.962 26.924C29.042 26.728 29.082 26.516 29.082 26.288C29.082 26.04 29.044 25.818 28.968 25.622C28.892 25.422 28.784 25.254 28.644 25.118C28.504 24.978 28.336 24.872 28.14 24.8C27.944 24.728 27.728 24.692 27.492 24.692C27.256 24.692 27.042 24.732 26.85 24.812C26.658 24.892 26.494 25.004 26.358 25.148C26.222 25.288 26.116 25.456 26.04 25.652C25.964 25.844 25.926 26.052 25.926 26.276C25.926 26.516 25.958 26.736 26.022 26.936C26.09 27.132 26.188 27.3 26.316 27.44C26.448 27.58 26.61 27.69 26.802 27.77C26.994 27.846 27.216 27.884 27.468 27.884Z" fill="#3BC57F"/>
<rect x="6" y="30" width="3" height="19" rx="1" transform="rotate(-180 6 30)" fill="#3BC57F"/>
<path d="M3.63397 6.5C4.01888 5.83333 4.98113 5.83333 5.36603 6.5L8.39711 11.75C8.78201 12.4167 8.30089 13.25 7.53109 13.25L1.46891 13.25C0.69911 13.25 0.217984 12.4167 0.602885 11.75L3.63397 6.5Z" fill="#3BC57F"/>
<rect x="17" y="25" width="3" height="19" rx="1" transform="rotate(-180 17 25)" fill="#3BC57F"/>
<path d="M16.366 29.5C15.9811 30.1667 15.0189 30.1667 14.634 29.5L11.6029 24.25C11.218 23.5833 11.6991 22.75 12.4689 22.75L18.5311 22.75C19.3009 22.75 19.782 23.5833 19.3971 24.25L16.366 29.5Z" fill="#3BC57F"/>
</g>
<defs>
<clipPath id="clip0">
<rect width="32" height="32" fill="white"/>
</clipPath>
</defs>
</svg>
