<svg width="32" height="32" viewBox="0 0 32 32" fill="none" xmlns="http://www.w3.org/2000/svg">
<path d="M13.7204 4.93608L8.36182 8.94892H3.46811C2.66065 8.94892 2 9.60957 2 10.417V20.6449C2 21.4526 2.66065 22.113 3.46811 22.113H8.36182L13.7204 26.1258C14.6992 26.8599 16.0694 26.1748 16.0694 24.9513V6.11057C16.0694 4.88714 14.6747 4.20202 13.7204 4.93608Z" fill="#828282"/>
<path d="M20.9142 7.33405C20.2536 6.6734 19.1525 6.6734 18.4921 7.33405C17.8314 7.9947 17.8314 9.09578 18.4921 9.75643C21.673 12.9373 21.673 18.1004 18.4921 21.2814C17.8314 21.942 17.8314 23.0431 18.4921 23.7035C18.8344 24.0461 19.2748 24.1929 19.6908 24.1929C20.1067 24.1929 20.5719 24.0218 20.8897 23.679C25.4409 19.2013 25.4409 11.8607 20.9142 7.33405Z" fill="#828282"/>
<path d="M22.8225 3.49247C22.162 4.15312 22.162 5.25421 22.8225 5.91486C25.3917 8.48405 26.8111 11.8852 26.8111 15.531C26.8111 19.1768 25.3917 22.5779 22.8225 25.1471C22.162 25.8078 22.162 26.9089 22.8225 27.5695C23.165 27.9118 23.6054 28.0833 24.0214 28.0833C24.4618 28.0833 24.9023 27.9121 25.2204 27.594C28.4258 24.3886 30.2117 20.1066 30.2117 15.5555C30.2117 11.0043 28.45 6.74679 25.2204 3.51694C24.5842 2.83182 23.5076 2.83182 22.8225 3.49247Z" fill="#828282"/>
</svg>
