<svg width="32" height="32" viewBox="0 0 32 32" fill="none" xmlns="http://www.w3.org/2000/svg">
<path d="M23.6796 14.9989H23.2245V11.3029C23.2245 7.36294 20.0979 4.0717 16.19 4.00146C16.0833 3.99951 15.8699 3.99951 15.7632 4.00146C11.8552 4.07164 8.72868 7.36289 8.72868 11.3028V11.3849C8.72868 12.2133 9.40023 12.8848 10.2286 12.8848C11.057 12.8848 11.7285 12.2133 11.7285 11.3849V11.3028C11.7285 8.95587 13.6358 7.01529 15.9765 7.01529C18.3172 7.01529 20.2246 8.95587 20.2246 11.3028V14.9988H8.27358C7.57213 14.9988 7 15.7227 7 16.6166V27.3007C7 28.1935 7.57213 28.9241 8.27358 28.9241H23.6796C24.3811 28.9241 24.9532 28.1935 24.9532 27.3007V16.6166C24.9533 15.7226 24.3811 14.9989 23.6796 14.9989ZM17.4199 21.9478V25.1761C17.4199 25.5458 17.1104 25.8586 16.7404 25.8586H15.2128C14.8428 25.8586 14.5333 25.5458 14.5333 25.1761V21.9478C14.1745 21.5945 13.9656 21.1062 13.9656 20.5659C13.9656 19.5421 14.757 18.6623 15.7632 18.6218C15.8699 18.6174 16.0834 18.6174 16.19 18.6218C17.1963 18.6623 17.9877 19.5421 17.9877 20.5659C17.9877 21.1061 17.7788 21.5945 17.4199 21.9478Z" fill="#828282"/>
</svg>
