<svg width="65" height="62" viewBox="0 0 65 62" fill="none" xmlns="http://www.w3.org/2000/svg">
<path d="M31 41.5113V19.7326C31 19.327 30.6625 19 30.2375 19H25.7625C25.3375 19 25 19.327 25 19.7326V41.5113C25 41.917 25.3375 42.25 25.7625 42.25H30.2375C30.6625 42.25 31 41.923 31 41.5113Z" fill="white"/>
<path d="M40.2375 19H35.7625C35.3438 19 35 19.327 35 19.7326V41.5113C35 41.917 35.3375 42.25 35.7625 42.25H40.2375C40.6562 42.25 41 41.923 41 41.5113V19.7326C41 19.327 40.6625 19 40.2375 19Z" fill="white"/>
</svg>
