<svg width="65" height="62" viewBox="0 0 65 62" fill="none" xmlns="http://www.w3.org/2000/svg">
<path d="M30.8014 22.226L25.863 25.9242H21.353C20.6088 25.9242 20 26.533 20 27.2772V36.703C20 37.4474 20.6088 38.056 21.353 38.056H25.863L30.8014 41.7542C31.7034 42.4307 32.9662 41.7993 32.9662 40.6718V23.3084C32.9662 22.1809 31.6808 21.5495 30.8014 22.226Z" fill="white"/>
<path d="M37.431 24.4359C36.8222 23.827 35.8074 23.827 35.1988 24.4359C34.59 25.0447 34.59 26.0595 35.1988 26.6683C38.1303 29.5998 38.1303 34.3581 35.1988 37.2895C34.59 37.8984 34.59 38.9131 35.1988 39.5217C35.5143 39.8374 35.9202 39.9727 36.3035 39.9727C36.6869 39.9727 37.1156 39.8151 37.4085 39.4992C41.6028 35.3726 41.6028 28.6076 37.431 24.4359Z" fill="white"/>
<path d="M39.1899 20.8956C38.5812 21.5044 38.5812 22.5192 39.1899 23.128C41.5576 25.4957 42.8657 28.6302 42.8657 31.9901C42.8657 35.35 41.5576 38.4845 39.1899 40.8522C38.5812 41.461 38.5812 42.4758 39.1899 43.0846C39.5056 43.4001 39.9115 43.5582 40.2948 43.5582C40.7007 43.5582 41.1066 43.4003 41.3998 43.1072C44.3538 40.1532 45.9997 36.2069 45.9997 32.0127C45.9997 27.8184 44.3761 23.8947 41.3998 20.9181C40.8135 20.2867 39.8213 20.2867 39.1899 20.8956Z" fill="white"/>
</svg>
