<svg width="65" height="62" viewBox="0 0 65 62" fill="none" xmlns="http://www.w3.org/2000/svg">
<path d="M33.9789 27.2027H26.6009C25.8018 27.2027 25.1514 27.8532 25.1514 28.6523C25.1514 29.4514 25.8018 30.1019 26.6009 30.1019H33.9789C34.7781 30.1019 35.4285 29.4514 35.4285 28.6523C35.4285 27.8532 34.7781 27.2027 33.9789 27.2027Z" fill="white"/>
<path d="M39.8516 34.2834C40.9481 32.5365 41.58 30.4922 41.58 28.2807C41.58 22.0549 36.525 17 30.2993 17C24.0549 17 19 22.0549 19 28.2807C19 34.5065 24.0549 39.5614 30.2807 39.5614C32.6781 39.5614 34.9082 38.818 36.7295 37.5357L43.0667 43.873C43.5128 44.319 44.0889 44.542 44.665 44.542C45.2411 44.542 45.8172 44.319 46.2632 43.873C47.1367 42.9995 47.1367 41.5685 46.2632 40.6765L39.8516 34.2834ZM37.1569 31.5887C36.8224 32.2763 36.3949 32.9082 35.8746 33.4657L35.856 33.4843C35.7259 33.6144 35.6144 33.7445 35.4657 33.856C35.4472 33.8746 35.4286 33.8746 35.4286 33.8932C35.0197 34.2649 34.5551 34.5994 34.0719 34.8781C32.9568 35.5286 31.6559 35.9003 30.2807 35.9003C26.0621 35.9003 22.6425 32.4808 22.6425 28.2621C22.6425 24.0435 26.0621 20.6239 30.2807 20.6239C34.4994 20.6239 37.9189 24.0435 37.9189 28.2621C37.9189 29.4701 37.6401 30.5852 37.1569 31.5887Z" fill="white"/>
</svg>
